<svg width="20" height="20" viewBox="0 0 20 20" fill="none" xmlns="http://www.w3.org/2000/svg">
<path d="M14.1667 18.9582H5.83333C2.79167 18.9582 1.875 18.0415 1.875 14.9998V4.99984C1.875 1.95817 2.79167 1.0415 5.83333 1.0415C8.875 1.0415 14.1667 1.0415 14.1667 1.0415C17.2083 1.0415 18.125 1.95817 18.125 4.99984V14.9998C18.125 18.0415 17.2083 18.9582 14.1667 18.9582ZM5.83333 2.2915C3.45 2.2915 3.125 2.6165 3.125 4.99984V14.9998C3.125 17.3832 3.45 17.7082 5.83333 17.7082H14.1667C16.55 17.7082 16.875 17.3832 16.875 14.9998V4.99984C16.875 2.6165 16.55 2.2915 14.1667 2.2915H5.83333Z" fill="#8C93A6"/>
<path d="M14.1667 18.9582H5.83333C2.79167 18.9582 1.875 18.0415 1.875 14.9998V4.99984C1.875 1.95817 2.79167 1.0415 5.83333 1.0415C8.875 1.0415 14.1667 1.0415 14.1667 1.0415C17.2083 1.0415 18.125 1.95817 18.125 4.99984V14.9998C18.125 18.0415 17.2083 18.9582 14.1667 18.9582ZM5.83333 2.2915C3.45 2.2915 3.125 2.6165 3.125 4.99984V14.9998C3.125 17.3832 3.45 17.7082 5.83333 17.7082H14.1667C16.55 17.7082 16.875 17.3832 16.875 14.9998V4.99984C16.875 2.6165 16.55 2.2915 14.1667 2.2915H5.83333Z" fill="#8C93A6"/>
<path d="M15.4163 7.70833H13.7497C12.483 7.70833 11.458 6.68333 11.458 5.41667V3.75C11.458 3.40833 11.7413 3.125 12.083 3.125C12.4247 3.125 12.708 3.40833 12.708 3.75V5.41667C12.708 5.99167 13.1747 6.45833 13.7497 6.45833H15.4163C15.758 6.45833 16.0413 6.74167 16.0413 7.08333C16.0413 7.425 15.758 7.70833 15.4163 7.70833Z" fill="#8C93A6"/>
<path d="M10.8337 11.4585H6.66699C6.32533 11.4585 6.04199 11.1752 6.04199 10.8335C6.04199 10.4918 6.32533 10.2085 6.66699 10.2085H10.8337C11.1753 10.2085 11.4587 10.4918 11.4587 10.8335C11.4587 11.1752 11.1753 11.4585 10.8337 11.4585Z" fill="#8C93A6"/>
<path d="M14.167 14.7915H6.66699C6.32533 14.7915 6.04199 14.5082 6.04199 14.1665C6.04199 13.8248 6.32533 13.5415 6.66699 13.5415H14.167C14.5087 13.5415 14.792 13.8248 14.792 14.1665C14.792 14.5082 14.5087 14.7915 14.167 14.7915Z" fill="#8C93A6"/>
</svg>
