<svg width="20" height="20" viewBox="0 0 20 20" fill="none" xmlns="http://www.w3.org/2000/svg">
<path d="M14.0837 15.8415C13.8253 15.8415 13.567 15.7665 13.342 15.6165L12.542 15.0915C12.317 14.9415 12.2087 14.6582 12.2837 14.3998C12.342 14.2082 12.367 13.9831 12.367 13.7331V10.3414C12.367 8.98311 11.517 8.13314 10.1587 8.13314H4.50032C4.40032 8.13314 4.30866 8.14149 4.21699 8.14982C4.04199 8.15815 3.87533 8.09981 3.742 7.98314C3.60866 7.86648 3.54199 7.69982 3.54199 7.52482V4.38314C3.54199 1.93314 4.42533 1.0498 6.87533 1.0498H15.6253C18.0753 1.0498 18.9587 1.93314 18.9587 4.38314V9.46645C18.9587 10.6748 18.5503 11.7414 17.8003 12.4748C17.2003 13.0831 16.367 13.4748 15.417 13.5915V14.5164C15.417 15.0164 15.142 15.4665 14.7087 15.6998C14.5087 15.7915 14.292 15.8415 14.0837 15.8415ZM13.5837 14.2748L14.1253 14.5831C14.1753 14.5581 14.1753 14.5164 14.1753 14.5081V12.9998C14.1753 12.6581 14.4587 12.3748 14.8003 12.3748C15.6753 12.3748 16.417 12.0998 16.9253 11.5831C17.4503 11.0665 17.717 10.3331 17.717 9.45811V4.3748C17.717 2.5998 17.4087 2.29146 15.6337 2.29146H6.88365C5.10865 2.29146 4.80032 2.5998 4.80032 4.3748V6.8748H10.167C12.2003 6.8748 13.6253 8.29982 13.6253 10.3331V13.7248C13.617 13.9164 13.6087 14.0998 13.5837 14.2748Z" fill="#8C93A6"/>
<path d="M14.0837 15.8415C13.8253 15.8415 13.567 15.7665 13.342 15.6165L12.542 15.0915C12.317 14.9415 12.2087 14.6582 12.2837 14.3998C12.342 14.2082 12.367 13.9831 12.367 13.7331V10.3414C12.367 8.98311 11.517 8.13314 10.1587 8.13314H4.50032C4.40032 8.13314 4.30866 8.14149 4.21699 8.14982C4.04199 8.15815 3.87533 8.09981 3.742 7.98314C3.60866 7.86648 3.54199 7.69982 3.54199 7.52482V4.38314C3.54199 1.93314 4.42533 1.0498 6.87533 1.0498H15.6253C18.0753 1.0498 18.9587 1.93314 18.9587 4.38314V9.46645C18.9587 10.6748 18.5503 11.7414 17.8003 12.4748C17.2003 13.0831 16.367 13.4748 15.417 13.5915V14.5164C15.417 15.0164 15.142 15.4665 14.7087 15.6998C14.5087 15.7915 14.292 15.8415 14.0837 15.8415ZM13.5837 14.2748L14.1253 14.5831C14.1753 14.5581 14.1753 14.5164 14.1753 14.5081V12.9998C14.1753 12.6581 14.4587 12.3748 14.8003 12.3748C15.6753 12.3748 16.417 12.0998 16.9253 11.5831C17.4503 11.0665 17.717 10.3331 17.717 9.45811V4.3748C17.717 2.5998 17.4087 2.29146 15.6337 2.29146H6.88365C5.10865 2.29146 4.80032 2.5998 4.80032 4.3748V6.8748H10.167C12.2003 6.8748 13.6253 8.29982 13.6253 10.3331V13.7248C13.617 13.9164 13.6087 14.0998 13.5837 14.2748Z" fill="#8C93A6"/>
<path d="M5.05866 18.9581C4.87533 18.9581 4.68366 18.9165 4.50866 18.8248C4.117 18.6165 3.87532 18.2165 3.87532 17.7665V17.1331C3.14199 17.0165 2.492 16.7081 2.00866 16.2248C1.37533 15.5914 1.04199 14.7248 1.04199 13.7248V10.3331C1.04199 8.44982 2.27532 7.06648 4.10865 6.89148C4.24199 6.88315 4.36699 6.8748 4.50032 6.8748H10.1587C12.192 6.8748 13.617 8.29982 13.617 10.3331V13.7248C13.617 14.0914 13.5753 14.4331 13.4837 14.7415C13.1087 16.2415 11.8337 17.1831 10.1587 17.1831H8.08366L5.72532 18.7498C5.52532 18.8915 5.292 18.9581 5.05866 18.9581ZM4.50032 8.1248C4.40032 8.1248 4.30866 8.13315 4.21699 8.14148C3.01699 8.24981 2.29199 9.07482 2.29199 10.3331V13.7248C2.29199 14.3914 2.50033 14.9498 2.89199 15.3414C3.27533 15.7248 3.83365 15.9331 4.50032 15.9331C4.84199 15.9331 5.12532 16.2165 5.12532 16.5581V17.6498L7.54199 16.0415C7.64199 15.9748 7.76699 15.9331 7.89199 15.9331H10.1587C11.2587 15.9331 12.0337 15.3831 12.2753 14.4165C12.3337 14.2081 12.367 13.9748 12.367 13.7248V10.3331C12.367 8.97482 11.517 8.1248 10.1587 8.1248H4.50032Z" fill="#8C93A6"/>
<path d="M5.05866 18.9581C4.87533 18.9581 4.68366 18.9165 4.50866 18.8248C4.117 18.6165 3.87532 18.2165 3.87532 17.7665V17.1331C3.14199 17.0165 2.492 16.7081 2.00866 16.2248C1.37533 15.5914 1.04199 14.7248 1.04199 13.7248V10.3331C1.04199 8.44982 2.27532 7.06648 4.10865 6.89148C4.24199 6.88315 4.36699 6.8748 4.50032 6.8748H10.1587C12.192 6.8748 13.617 8.29982 13.617 10.3331V13.7248C13.617 14.0914 13.5753 14.4331 13.4837 14.7415C13.1087 16.2415 11.8337 17.1831 10.1587 17.1831H8.08366L5.72532 18.7498C5.52532 18.8915 5.292 18.9581 5.05866 18.9581ZM4.50032 8.1248C4.40032 8.1248 4.30866 8.13315 4.21699 8.14148C3.01699 8.24981 2.29199 9.07482 2.29199 10.3331V13.7248C2.29199 14.3914 2.50033 14.9498 2.89199 15.3414C3.27533 15.7248 3.83365 15.9331 4.50032 15.9331C4.84199 15.9331 5.12532 16.2165 5.12532 16.5581V17.6498L7.54199 16.0415C7.64199 15.9748 7.76699 15.9331 7.89199 15.9331H10.1587C11.2587 15.9331 12.0337 15.3831 12.2753 14.4165C12.3337 14.2081 12.367 13.9748 12.367 13.7248V10.3331C12.367 8.97482 11.517 8.1248 10.1587 8.1248H4.50032Z" fill="#8C93A6"/>
</svg>
