<svg width="24" height="24" viewBox="0 0 24 24" stroke="#000000" fill="none" stroke-linejoin="round" stroke-width="1.125" stroke-linecap="round" xmlns="http://www.w3.org/2000/svg"><path d="M11.9998 15C8.68613 15 5.99984 12.3137 5.99984 9C5.99984 5.68629 8.68613 3 11.9998 3C15.3135 3 17.9998 5.68629 17.9998 9C17.9998 12.3137 15.3135 15 11.9998 15ZM11.9998 15L15.6417 20.8281C16.0511 21.4834 17.0646 21.151 17.0064 20.3805L16.859 18.4296C16.8141 17.835 17.4552 17.4344 17.9699 17.7354L19.6588 18.7231C20.3257 19.1132 21.0688 18.348 20.6593 17.6928L17.1574 12.0677M11.9998 15L8.35802 20.8281C7.94857 21.4834 6.93513 21.151 6.99332 20.3805L7.14066 18.4296C7.18556 17.835 6.54452 17.4344 6.02981 17.7354L4.34091 18.7231C3.67393 19.1132 2.9309 18.348 3.34035 17.6928L6.84229 12.0677M13.9998 9C13.9998 10.1046 13.1044 11 11.9998 11C10.8953 11 9.99984 10.1046 9.99984 9C9.99984 7.89543 10.8953 7 11.9998 7C13.1044 7 13.9998 7.89543 13.9998 9Z"></path></svg>