<?xml version="1.0" standalone="no"?>
<!DOCTYPE svg PUBLIC "-//W3C//DTD SVG 20010904//EN"
 "http://www.w3.org/TR/2001/REC-SVG-20010904/DTD/svg10.dtd">
<svg version="1.0" xmlns="http://www.w3.org/2000/svg"
 width="83.000000pt" height="83.000000pt" viewBox="0 0 83.000000 83.000000"
 preserveAspectRatio="xMidYMid meet">

<g transform="translate(0.000000,83.000000) scale(0.100000,-0.100000)"
fill="#000000" stroke="none">
<path d="M0 415 l0 -415 415 0 415 0 0 415 0 415 -415 0 -415 0 0 -415z m479
375 c202 -38 346 -238 312 -432 -53 -302 -408 -428 -629 -223 -161 149 -172
377 -25 535 94 102 215 144 342 120z"/>
<path d="M231 608 c13 -18 47 -65 76 -104 29 -39 53 -74 53 -79 0 -4 -36 -56
-80 -116 -44 -60 -80 -111 -80 -114 0 -3 21 -5 48 -5 l47 1 80 109 c44 61 81
115 83 120 2 5 -31 57 -74 115 l-77 105 -49 0 -49 0 22 -32z"/>
<path d="M493 603 c-46 -59 -47 -62 -21 -98 12 -19 25 -35 28 -35 5 1 63 80
103 142 l19 28 -50 0 c-46 0 -53 -3 -79 -37z"/>
<path d="M472 345 c-26 -37 -26 -35 27 -108 34 -46 36 -47 88 -47 l54 0 -57
78 c-88 120 -85 118 -112 77z"/>
</g>
</svg>
